<?xml version="1.0" standalone="no"?>
<!DOCTYPE svg PUBLIC "-//W3C//DTD SVG 20010904//EN"
 "http://www.w3.org/TR/2001/REC-SVG-20010904/DTD/svg10.dtd">
<svg version="1.0" xmlns="http://www.w3.org/2000/svg"
 width="300.000000pt" height="300.000000pt" viewBox="0 0 300.000000 300.000000"
 preserveAspectRatio="xMidYMid meet">
<metadata>
Created by potrace 1.14, written by Peter Selinger 2001-2017
</metadata>
<g transform="translate(0.000000,300.000000) scale(0.100000,-0.100000)"
fill="#000000" stroke="none">
<path d="M220 2983 c-84 -30 -146 -84 -188 -165 l-27 -53 0 -1265 0 -1265 25
-49 c31 -63 96 -127 158 -157 l47 -24 1240 -3 c942 -2 1251 0 1285 9 63 17
141 71 176 121 63 91 59 -13 62 1349 2 1136 1 1250 -14 1295 -30 86 -89 154
-174 197 l-45 22 -1250 2 c-1115 1 -1255 0 -1295 -14z"/>
</g>
</svg>
